<svg width="21" height="21" viewBox="0 0 21 21" fill="none" xmlns="http://www.w3.org/2000/svg">
<path d="M1.84888 9.19347C1.53366 9.19347 1.26924 9.08667 1.05563 8.87306C0.842024 8.65945 0.73559 8.39541 0.736332 8.08093V1.40564C0.736332 1.09042 0.843137 0.826005 1.05675 0.612396C1.27035 0.398787 1.5344 0.292353 1.84888 0.293095H8.52416C8.83939 0.293095 9.1038 0.399899 9.31741 0.613508C9.53102 0.827118 9.63745 1.09116 9.63671 1.40564V8.08093C9.63671 8.39615 9.52991 8.66056 9.3163 8.87417C9.10269 9.08778 8.83864 9.19422 8.52416 9.19347H1.84888ZM12.9744 9.19347C12.6591 9.19347 12.3947 9.08667 12.1811 8.87306C11.9675 8.65945 11.8611 8.39541 11.8618 8.08093V1.40564C11.8618 1.09042 11.9686 0.826005 12.1822 0.612396C12.3958 0.398787 12.6599 0.292353 12.9744 0.293095H19.6496C19.9649 0.293095 20.2293 0.399899 20.4429 0.613508C20.6565 0.827118 20.7629 1.09116 20.7622 1.40564V8.08093C20.7622 8.39615 20.6554 8.66056 20.4418 8.87417C20.2282 9.08778 19.9641 9.19422 19.6496 9.19347H12.9744ZM1.84888 20.3189C1.53366 20.3189 1.26924 20.2121 1.05563 19.9985C0.842024 19.7849 0.73559 19.5209 0.736332 19.2064V12.5311C0.736332 12.2159 0.843137 11.9515 1.05675 11.7379C1.27035 11.5243 1.5344 11.4178 1.84888 11.4186H8.52416C8.83939 11.4186 9.1038 11.5254 9.31741 11.739C9.53102 11.9526 9.63745 12.2166 9.63671 12.5311V19.2064C9.63671 19.5216 9.52991 19.786 9.3163 19.9996C9.10269 20.2133 8.83864 20.3197 8.52416 20.3189H1.84888ZM16.312 20.3189C15.9968 20.3189 15.7324 20.2121 15.5188 19.9985C15.3051 19.7849 15.1987 19.5209 15.1994 19.2064V16.9813H12.9465C12.6313 16.9813 12.3717 16.8745 12.1678 16.6609C11.9638 16.4473 11.8618 16.1832 11.8618 15.8688C11.8618 15.5535 11.9686 15.2891 12.1822 15.0755C12.3958 14.8619 12.6599 14.7555 12.9744 14.7562H15.1994V12.5033C15.1994 12.1881 15.3063 11.9285 15.5199 11.7245C15.7335 11.5206 15.9975 11.4186 16.312 11.4186C16.6272 11.4186 16.8916 11.5254 17.1052 11.739C17.3189 11.9526 17.4253 12.2166 17.4245 12.5311V14.7562H19.6775C19.9927 14.7562 20.2523 14.863 20.4562 15.0766C20.6602 15.2902 20.7622 15.5543 20.7622 15.8688C20.7622 16.184 20.6554 16.4484 20.4418 16.662C20.2282 16.8756 19.9641 16.982 19.6496 16.9813H17.4245V19.2342C17.4245 19.5494 17.3177 19.809 17.1041 20.013C16.8905 20.217 16.6265 20.3189 16.312 20.3189ZM14.0869 2.51819V6.96838H18.5371V2.51819H14.0869ZM2.96143 2.51819V6.96838H7.41162V2.51819H2.96143ZM2.96143 13.6437V18.0939H7.41162V13.6437H2.96143Z" fill="white"/>
</svg>
