<svg width="30" height="19" viewBox="0 0 30 19" fill="none" xmlns="http://www.w3.org/2000/svg">
<path d="M1.40625 0.625H28.5938C28.9667 0.625 29.3244 0.773158 29.5881 1.03688C29.8518 1.3006 30 1.65829 30 2.03125C30 2.40421 29.8518 2.7619 29.5881 3.02562C29.3244 3.28934 28.9667 3.4375 28.5938 3.4375H1.40625C1.03329 3.4375 0.675604 3.28934 0.411881 3.02562C0.148158 2.7619 0 2.40421 0 2.03125C0 1.65829 0.148158 1.3006 0.411881 1.03688C0.675604 0.773158 1.03329 0.625 1.40625 0.625ZM5.625 9.53125C5.625 9.15829 5.77316 8.8006 6.03688 8.53688C6.3006 8.27316 6.65829 8.125 7.03125 8.125H22.9688C23.3417 8.125 23.6994 8.27316 23.9631 8.53688C24.2268 8.8006 24.375 9.15829 24.375 9.53125C24.375 9.90421 24.2268 10.2619 23.9631 10.5256C23.6994 10.7893 23.3417 10.9375 22.9688 10.9375H7.03125C6.65829 10.9375 6.3006 10.7893 6.03688 10.5256C5.77316 10.2619 5.625 9.90421 5.625 9.53125ZM11.25 17.0312C11.25 16.6583 11.3982 16.3006 11.6619 16.0369C11.9256 15.7732 12.2833 15.625 12.6562 15.625H17.3438C17.7167 15.625 18.0744 15.7732 18.3381 16.0369C18.6018 16.3006 18.75 16.6583 18.75 17.0312C18.75 17.4042 18.6018 17.7619 18.3381 18.0256C18.0744 18.2893 17.7167 18.4375 17.3438 18.4375H12.6562C12.2833 18.4375 11.9256 18.2893 11.6619 18.0256C11.3982 17.7619 11.25 17.4042 11.25 17.0312Z" fill="black"/>
</svg>
