<svg width="21" height="21" viewBox="0 0 21 21" fill="none" xmlns="http://www.w3.org/2000/svg">
<path d="M18.9064 14.2933L15.9428 13.9549C15.5943 13.914 15.2411 13.9526 14.9096 14.0678C14.5782 14.183 14.2772 14.3718 14.0292 14.62L11.8823 16.7669C8.57022 15.082 5.87803 12.3898 4.1931 9.0777L6.35167 6.91912C6.8534 6.4174 7.09842 5.71732 7.01675 5.00557L6.67838 2.06524C6.61247 1.49594 6.33938 0.970807 5.91116 0.589929C5.48294 0.209051 4.92954 -0.000933522 4.35645 3.11997e-06H2.33788C1.0194 3.11997e-06 -0.0773897 1.09679 0.00428621 2.41528C0.62269 12.3797 8.59193 20.3373 18.5447 20.9557C19.8632 21.0374 20.96 19.9406 20.96 18.6221V16.6036C20.9717 15.4251 20.0849 14.4333 18.9064 14.2933Z" fill="#888181"/>
</svg>
