<svg width="17" height="20" viewBox="0 0 17 20" fill="none" xmlns="http://www.w3.org/2000/svg">
<path d="M10.2984 4.09918C10.4742 4.27474 10.7124 4.37335 10.9609 4.37335C11.2093 4.37335 11.4476 4.27474 11.6234 4.09918L12.5234 3.19917V15.9367C12.5234 16.1853 12.6222 16.4238 12.798 16.5996C12.9738 16.7754 13.2122 16.8742 13.4609 16.8742C13.7095 16.8742 13.948 16.7754 14.1238 16.5996C14.2996 16.4238 14.3984 16.1853 14.3984 15.9367V3.19917L15.2984 4.09918C15.3842 4.19128 15.4877 4.26516 15.6027 4.3164C15.7177 4.36764 15.8419 4.39519 15.9677 4.39741C16.0936 4.39964 16.2186 4.37648 16.3354 4.32933C16.4521 4.28218 16.5582 4.212 16.6472 4.12297C16.7362 4.03395 16.8064 3.92791 16.8535 3.81117C16.9007 3.69444 16.9238 3.5694 16.9216 3.44352C16.9194 3.31764 16.8919 3.1935 16.8406 3.0785C16.7894 2.9635 16.7155 2.86 16.6234 2.77417L14.1234 0.274175C13.9476 0.0986117 13.7093 0 13.4609 0C13.2124 0 12.9742 0.0986117 12.7984 0.274175L10.2984 2.77417C10.1228 2.94996 10.0242 3.18824 10.0242 3.43668C10.0242 3.68511 10.1228 3.92339 10.2984 4.09918ZM4.39839 16.1742L5.29839 15.2742C5.38421 15.1821 5.48771 15.1082 5.60271 15.0569C5.71771 15.0057 5.84185 14.9782 5.96773 14.9759C6.09361 14.9737 6.21865 14.9969 6.33538 15.044C6.45212 15.0912 6.55816 15.1614 6.64718 15.2504C6.73621 15.3394 6.80639 15.4454 6.85354 15.5622C6.90069 15.6789 6.92385 15.8039 6.92163 15.9298C6.9194 16.0557 6.89185 16.1798 6.84061 16.2948C6.78937 16.4098 6.71549 16.5133 6.62338 16.5992L4.12338 19.0992C3.9476 19.2747 3.70932 19.3734 3.46089 19.3734C3.21245 19.3734 2.97417 19.2747 2.79839 19.0992L0.298385 16.5992C0.206276 16.5133 0.132399 16.4098 0.0811587 16.2948C0.0299188 16.1798 0.00236688 16.0557 0.000145903 15.9298C-0.00207508 15.8039 0.0210804 15.6789 0.0682317 15.5622C0.115383 15.4454 0.185564 15.3394 0.274587 15.2504C0.363611 15.1614 0.469653 15.0912 0.586388 15.044C0.703123 14.9969 0.82816 14.9737 0.954038 14.9759C1.07992 14.9782 1.20406 15.0057 1.31906 15.0569C1.43406 15.1082 1.53756 15.1821 1.62339 15.2742L2.52339 16.1742V3.43668C2.52339 3.18803 2.62216 2.94958 2.79797 2.77376C2.97379 2.59795 3.21224 2.49918 3.46089 2.49918C3.70953 2.49918 3.94798 2.59795 4.1238 2.77376C4.29961 2.94958 4.39839 3.18803 4.39839 3.43668V16.1742Z" fill="black"/>
</svg>
